<?xml version="1.0" standalone="no"?>
<!DOCTYPE svg PUBLIC "-//W3C//DTD SVG 20010904//EN"
 "http://www.w3.org/TR/2001/REC-SVG-20010904/DTD/svg10.dtd">
<svg version="1.0" xmlns="http://www.w3.org/2000/svg"
 width="800.000000pt" height="800.000000pt" viewBox="0 0 800.000000 800.000000"
 preserveAspectRatio="xMidYMid meet">
<metadata>
Created by potrace 1.11, written by Peter Selinger 2001-2013
</metadata>
<g transform="translate(0.000000,800.000000) scale(0.100000,-0.100000)"
fill="#000000" stroke="none">
<path d="M0 4000 l0 -2500 4000 0 4000 0 0 2500 0 2500 -4000 0 -4000 0 0
-2500z m3880 0 l0 -2380 -1880 0 -1880 0 0 2380 0 2380 1880 0 1880 0 0 -2380z
m1562 1973 c8 -10 59 -83 113 -163 54 -80 102 -147 105 -150 4 -3 9 -12 13
-20 4 -8 29 -46 57 -85 28 -38 84 -119 125 -180 41 -60 85 -123 97 -138 l23
-28 90 131 c103 150 287 416 372 539 32 47 64 91 71 98 19 19 751 19 757 0 2
-7 6 -907 7 -2002 l3 -1990 -339 -3 c-248 -2 -342 1 -347 9 -6 10 -9 875 -11
2668 -1 326 12 309 -103 141 -65 -95 -85 -125 -206 -300 -37 -52 -86 -124
-110 -160 -24 -36 -47 -66 -51 -68 -5 -2 -8 -10 -8 -17 0 -7 -3 -15 -7 -17 -5
-1 -21 -23 -38 -48 -33 -49 -36 -53 -65 -90 -13 -16 -22 -21 -27 -14 -16 21
-178 257 -188 272 -21 32 -244 357 -252 368 -4 5 -12 18 -18 27 -21 34 -128
187 -131 187 -2 0 -6 -1483 -5 -2735 0 -104 -3 -198 -5 -208 -5 -16 -28 -17
-347 -15 l-342 3 2 1525 c3 2140 4 2464 9 2472 3 4 170 7 373 8 340 0 369 -1
383 -17z"/>
<path d="M1807 6043 c-2 -1 -21 -5 -43 -8 -21 -4 -48 -8 -59 -10 -99 -16 -296
-98 -390 -163 -243 -168 -417 -417 -480 -687 -64 -279 -18 -633 116 -884 104
-193 298 -379 519 -497 30 -16 57 -32 58 -36 2 -5 8 -8 12 -8 5 0 48 -22 96
-50 48 -27 88 -50 90 -50 2 0 25 -13 51 -28 26 -16 77 -44 113 -64 36 -20 81
-45 100 -56 19 -11 53 -30 75 -42 215 -118 314 -261 293 -425 -16 -123 -51
-197 -136 -286 -90 -95 -200 -137 -331 -125 -82 7 -122 20 -187 62 -66 44
-106 89 -148 166 -49 90 -58 146 -59 339 0 108 -4 172 -10 176 -18 11 -668 9
-677 -2 -13 -16 -9 -375 6 -473 62 -419 372 -787 769 -915 122 -39 188 -50
325 -52 262 -3 483 66 679 212 236 177 385 410 447 703 13 63 18 127 17 250 0
143 -4 177 -26 260 -48 182 -125 312 -276 461 -126 125 -237 201 -471 320 -58
29 -116 61 -130 70 -14 9 -63 36 -110 60 -112 57 -274 152 -324 192 -153 119
-217 256 -217 458 1 237 183 441 406 454 195 12 376 -119 434 -315 10 -31 15
-134 18 -330 3 -157 9 -289 13 -295 9 -11 665 -13 676 -2 8 8 7 592 -1 637
-49 277 -144 469 -320 645 -174 175 -399 293 -635 331 -43 7 -278 13 -283 7z"/>
</g>
</svg>
